<?xml version="1.0" encoding="UTF-8" standalone="no"?>
<!DOCTYPE svg PUBLIC "-//W3C//DTD SVG 1.1//EN"
 "http://www.w3.org/Graphics/SVG/1.1/DTD/svg11.dtd">
<!-- Generated by graphviz version 2.40.1 (20161225.0304)
 -->
<!-- Title: H Pages: 1 -->
<svg width="604pt" height="205pt"
 viewBox="0.00 0.00 603.98 204.55" xmlns="http://www.w3.org/2000/svg" xmlns:xlink="http://www.w3.org/1999/xlink">
<g id="graph0" class="graph" transform="scale(1 1) rotate(0) translate(4 200.5461)">
<title>H</title>
<polygon fill="#ffffff" stroke="transparent" points="-4,4 -4,-200.5461 599.9827,-200.5461 599.9827,4 -4,4"/>
<!-- q0 -->
<g id="node1" class="node">
<title>q0</title>
<ellipse fill="none" stroke="#000000" cx="19.4983" cy="-101.0479" rx="19.4965" ry="19.4965"/>
<text text-anchor="middle" x="19.4983" y="-97.3479" font-family="Times,serif" font-size="14.00" fill="#000000">q0</text>
</g>
<!-- q1 -->
<g id="node2" class="node">
<title>q1</title>
<ellipse fill="none" stroke="#000000" cx="105.4948" cy="-158.0479" rx="19.4965" ry="19.4965"/>
<text text-anchor="middle" x="105.4948" y="-154.3479" font-family="Times,serif" font-size="14.00" fill="#000000">q1</text>
</g>
<!-- q0&#45;&gt;q1 -->
<g id="edge1" class="edge">
<title>q0&#45;&gt;q1</title>
<path fill="none" stroke="#000000" d="M36.0793,-112.038C48.69,-120.3966 66.2504,-132.036 80.5534,-141.5163"/>
<polygon fill="#000000" stroke="#000000" points="78.6957,-144.484 88.9647,-147.0914 82.5631,-138.6493 78.6957,-144.484"/>
<text text-anchor="middle" x="62.4965" y="-135.8479" font-family="Times,serif" font-size="14.00" fill="#000000">c </text>
</g>
<!-- q2 -->
<g id="node3" class="node">
<title>q2</title>
<ellipse fill="none" stroke="#000000" cx="105.4948" cy="-101.0479" rx="19.4965" ry="19.4965"/>
<text text-anchor="middle" x="105.4948" y="-97.3479" font-family="Times,serif" font-size="14.00" fill="#000000">q2</text>
</g>
<!-- q0&#45;&gt;q2 -->
<g id="edge2" class="edge">
<title>q0&#45;&gt;q2</title>
<path fill="none" stroke="#000000" d="M39.0122,-101.0479C49.8208,-101.0479 63.4853,-101.0479 75.611,-101.0479"/>
<polygon fill="#000000" stroke="#000000" points="75.7604,-104.548 85.7604,-101.0479 75.7604,-97.548 75.7604,-104.548"/>
<text text-anchor="middle" x="62.4965" y="-104.8479" font-family="Times,serif" font-size="14.00" fill="#000000">b </text>
</g>
<!-- q3 -->
<g id="node4" class="node">
<title>q3</title>
<ellipse fill="none" stroke="#000000" cx="105.4948" cy="-44.0479" rx="19.4965" ry="19.4965"/>
<text text-anchor="middle" x="105.4948" y="-40.3479" font-family="Times,serif" font-size="14.00" fill="#000000">q3</text>
</g>
<!-- q0&#45;&gt;q3 -->
<g id="edge3" class="edge">
<title>q0&#45;&gt;q3</title>
<path fill="none" stroke="#000000" d="M36.0793,-90.0577C48.69,-81.6991 66.2504,-70.0598 80.5534,-60.5795"/>
<polygon fill="#000000" stroke="#000000" points="82.5631,-63.4465 88.9647,-55.0043 78.6957,-57.6118 82.5631,-63.4465"/>
<text text-anchor="middle" x="62.4965" y="-79.8479" font-family="Times,serif" font-size="14.00" fill="#000000">f </text>
</g>
<!-- q4 -->
<g id="node5" class="node">
<title>q4</title>
<ellipse fill="none" stroke="#000000" cx="191.4913" cy="-177.0479" rx="19.4965" ry="19.4965"/>
<text text-anchor="middle" x="191.4913" y="-173.3479" font-family="Times,serif" font-size="14.00" fill="#000000">q4</text>
</g>
<!-- q1&#45;&gt;q4 -->
<g id="edge4" class="edge">
<title>q1&#45;&gt;q4</title>
<path fill="none" stroke="#000000" d="M124.5802,-162.2646C135.6366,-164.7074 149.7859,-167.8335 162.223,-170.5813"/>
<polygon fill="#000000" stroke="#000000" points="161.6423,-174.0374 172.1619,-172.7772 163.1525,-167.2022 161.6423,-174.0374"/>
<text text-anchor="middle" x="148.4931" y="-171.8479" font-family="Times,serif" font-size="14.00" fill="#000000">o </text>
</g>
<!-- q5 -->
<g id="node6" class="node">
<title>q5</title>
<ellipse fill="none" stroke="#000000" cx="191.4913" cy="-120.0479" rx="19.4965" ry="19.4965"/>
<text text-anchor="middle" x="191.4913" y="-116.3479" font-family="Times,serif" font-size="14.00" fill="#000000">q5</text>
</g>
<!-- q1&#45;&gt;q5 -->
<g id="edge5" class="edge">
<title>q1&#45;&gt;q5</title>
<path fill="none" stroke="#000000" d="M123.7325,-149.989C135.5553,-144.7648 151.1669,-137.8664 164.4248,-132.008"/>
<polygon fill="#000000" stroke="#000000" points="165.8427,-135.208 173.5749,-127.9648 163.0134,-128.8052 165.8427,-135.208"/>
<text text-anchor="middle" x="148.4931" y="-144.8479" font-family="Times,serif" font-size="14.00" fill="#000000">a </text>
</g>
<!-- q2&#45;&gt;q5 -->
<g id="edge6" class="edge">
<title>q2&#45;&gt;q5</title>
<path fill="none" stroke="#000000" d="M125.0864,-99.5741C134.0154,-99.3792 144.6542,-99.821 153.9931,-102.0479 157.7248,-102.9377 161.5225,-104.2333 165.1982,-105.7281"/>
<polygon fill="#000000" stroke="#000000" points="163.9654,-109.0134 174.5135,-110.0078 166.8878,-102.6526 163.9654,-109.0134"/>
<text text-anchor="middle" x="148.4931" y="-105.8479" font-family="Times,serif" font-size="14.00" fill="#000000">a </text>
</g>
<!-- q6 -->
<g id="node7" class="node">
<title>q6</title>
<ellipse fill="none" stroke="#000000" cx="191.4913" cy="-44.0479" rx="19.4965" ry="19.4965"/>
<text text-anchor="middle" x="191.4913" y="-40.3479" font-family="Times,serif" font-size="14.00" fill="#000000">q6</text>
</g>
<!-- q3&#45;&gt;q6 -->
<g id="edge7" class="edge">
<title>q3&#45;&gt;q6</title>
<path fill="none" stroke="#000000" d="M125.0088,-44.0479C135.8173,-44.0479 149.4818,-44.0479 161.6076,-44.0479"/>
<polygon fill="#000000" stroke="#000000" points="161.757,-47.548 171.7569,-44.0479 161.7569,-40.548 161.757,-47.548"/>
<text text-anchor="middle" x="148.4931" y="-47.8479" font-family="Times,serif" font-size="14.00" fill="#000000">o </text>
</g>
<!-- q7 -->
<g id="node8" class="node">
<title>q7</title>
<ellipse fill="none" stroke="#000000" cx="280.4879" cy="-135.0479" rx="19.4965" ry="19.4965"/>
<text text-anchor="middle" x="280.4879" y="-131.3479" font-family="Times,serif" font-size="14.00" fill="#000000">q7</text>
</g>
<!-- q4&#45;&gt;q7 -->
<g id="edge8" class="edge">
<title>q4&#45;&gt;q7</title>
<path fill="none" stroke="#000000" d="M209.5011,-168.5485C222.1291,-162.5891 239.2318,-154.5178 253.4857,-147.791"/>
<polygon fill="#000000" stroke="#000000" points="255.2589,-150.8244 262.8086,-143.3912 252.2713,-144.4939 255.2589,-150.8244"/>
<text text-anchor="middle" x="235.9896" y="-161.8479" font-family="Times,serif" font-size="14.00" fill="#000000">w </text>
</g>
<!-- q5&#45;&gt;q7 -->
<g id="edge9" class="edge">
<title>q5&#45;&gt;q7</title>
<path fill="none" stroke="#000000" d="M210.8023,-123.3026C222.5812,-125.2879 237.8709,-127.8649 251.1262,-130.0991"/>
<polygon fill="#000000" stroke="#000000" points="250.772,-133.5887 261.2147,-131.7994 251.9355,-126.686 250.772,-133.5887"/>
<text text-anchor="middle" x="235.9896" y="-131.8479" font-family="Times,serif" font-size="14.00" fill="#000000">t </text>
</g>
<!-- q8 -->
<g id="node9" class="node">
<title>q8</title>
<ellipse fill="none" stroke="#000000" cx="280.4879" cy="-44.0479" rx="19.4965" ry="19.4965"/>
<text text-anchor="middle" x="280.4879" y="-40.3479" font-family="Times,serif" font-size="14.00" fill="#000000">q8</text>
</g>
<!-- q6&#45;&gt;q8 -->
<g id="edge10" class="edge">
<title>q6&#45;&gt;q8</title>
<path fill="none" stroke="#000000" d="M211.2426,-44.0479C222.7646,-44.0479 237.5325,-44.0479 250.4682,-44.0479"/>
<polygon fill="#000000" stroke="#000000" points="250.7919,-47.548 260.7919,-44.0479 250.7919,-40.548 250.7919,-47.548"/>
<text text-anchor="middle" x="235.9896" y="-47.8479" font-family="Times,serif" font-size="14.00" fill="#000000">x </text>
</g>
<!-- q9 -->
<g id="node10" class="node">
<title>q9</title>
<ellipse fill="none" stroke="#000000" cx="572.4844" cy="-84.0479" rx="19.4968" ry="19.4968"/>
<ellipse fill="none" stroke="#000000" cx="572.4844" cy="-84.0479" rx="23.4965" ry="23.4965"/>
<text text-anchor="middle" x="572.4844" y="-80.3479" font-family="Times,serif" font-size="14.00" fill="#000000">q9</text>
</g>
<!-- q7&#45;&gt;q9 -->
<g id="edge11" class="edge">
<title>q7&#45;&gt;q9</title>
<path fill="none" stroke="#000000" d="M300.1687,-133.0993C342.6853,-128.6639 446.1278,-116.6545 530.9862,-97.0479 534.1492,-96.317 537.4205,-95.4649 540.6745,-94.5529"/>
<polygon fill="#000000" stroke="#000000" points="541.6735,-97.9074 550.2585,-91.6986 539.6754,-91.1986 541.6735,-97.9074"/>
<text text-anchor="middle" x="433.9862" y="-125.8479" font-family="Times,serif" font-size="14.00" fill="#000000">00:&lt;SG&gt;, s:&lt;PL&gt; </text>
</g>
<!-- q8&#45;&gt;q9 -->
<g id="edge12" class="edge">
<title>q8&#45;&gt;q9</title>
<path fill="none" stroke="#000000" d="M298.5089,-51.8392C304.5929,-54.1816 311.4901,-56.5298 317.9862,-58.0479 395.5484,-76.1731 489.3384,-81.6631 538.5542,-83.3258"/>
<polygon fill="#000000" stroke="#000000" points="538.5418,-86.8269 548.6439,-83.6334 538.7552,-79.8302 538.5418,-86.8269"/>
<text text-anchor="middle" x="433.9862" y="-84.8479" font-family="Times,serif" font-size="14.00" fill="#000000">00:&lt;SG&gt; </text>
</g>
<!-- q10 -->
<g id="node11" class="node">
<title>q10</title>
<ellipse fill="none" stroke="#000000" cx="433.9862" cy="-24.0479" rx="24.0958" ry="24.0958"/>
<text text-anchor="middle" x="433.9862" y="-20.3479" font-family="Times,serif" font-size="14.00" fill="#000000">q10</text>
</g>
<!-- q8&#45;&gt;q10 -->
<g id="edge13" class="edge">
<title>q8&#45;&gt;q10</title>
<path fill="none" stroke="#000000" d="M299.9286,-41.5149C324.9694,-38.2522 368.9202,-32.5256 399.6487,-28.5218"/>
<polygon fill="#000000" stroke="#000000" points="400.4498,-31.9471 409.9137,-27.1844 399.5453,-25.0058 400.4498,-31.9471"/>
<text text-anchor="middle" x="340.9862" y="-42.8479" font-family="Times,serif" font-size="14.00" fill="#000000">e:&lt;PL&gt; </text>
</g>
<!-- q10&#45;&gt;q9 -->
<g id="edge14" class="edge">
<title>q10&#45;&gt;q9</title>
<path fill="none" stroke="#000000" d="M457.4799,-29.4382C477.6122,-34.5477 507.0609,-43.2051 530.9862,-55.0479 535.7863,-57.4239 540.6526,-60.312 545.2816,-63.3337"/>
<polygon fill="#000000" stroke="#000000" points="543.5903,-66.4187 553.8109,-69.2097 547.5616,-60.6542 543.5903,-66.4187"/>
<text text-anchor="middle" x="517.4862" y="-58.8479" font-family="Times,serif" font-size="14.00" fill="#000000">s:00 </text>
</g>
</g>
</svg>
