<?xml version="1.0" encoding="UTF-8" standalone="no"?>
<!DOCTYPE svg PUBLIC "-//W3C//DTD SVG 1.1//EN"
 "http://www.w3.org/Graphics/SVG/1.1/DTD/svg11.dtd">
<!-- Generated by graphviz version 2.40.1 (20161225.0304)
 -->
<!-- Title: H Pages: 1 -->
<svg width="604pt" height="180pt"
 viewBox="0.00 0.00 603.98 180.00" xmlns="http://www.w3.org/2000/svg" xmlns:xlink="http://www.w3.org/1999/xlink">
<g id="graph0" class="graph" transform="scale(1 1) rotate(0) translate(4 175.9965)">
<title>H</title>
<polygon fill="#ffffff" stroke="transparent" points="-4,4 -4,-175.9965 599.9827,-175.9965 599.9827,4 -4,4"/>
<!-- q0 -->
<g id="node1" class="node">
<title>q0</title>
<ellipse fill="none" stroke="#000000" cx="19.4983" cy="-95.4983" rx="19.4965" ry="19.4965"/>
<text text-anchor="middle" x="19.4983" y="-91.7983" font-family="Times,serif" font-size="14.00" fill="#000000">q0</text>
</g>
<!-- q1 -->
<g id="node2" class="node">
<title>q1</title>
<ellipse fill="none" stroke="#000000" cx="105.4948" cy="-152.4983" rx="19.4965" ry="19.4965"/>
<text text-anchor="middle" x="105.4948" y="-148.7983" font-family="Times,serif" font-size="14.00" fill="#000000">q1</text>
</g>
<!-- q0&#45;&gt;q1 -->
<g id="edge1" class="edge">
<title>q0&#45;&gt;q1</title>
<path fill="none" stroke="#000000" d="M36.0793,-106.4884C48.69,-114.847 66.2504,-126.4864 80.5534,-135.9667"/>
<polygon fill="#000000" stroke="#000000" points="78.6957,-138.9344 88.9647,-141.5418 82.5631,-133.0997 78.6957,-138.9344"/>
<text text-anchor="middle" x="62.4965" y="-130.2983" font-family="Times,serif" font-size="14.00" fill="#000000">f </text>
</g>
<!-- q2 -->
<g id="node3" class="node">
<title>q2</title>
<ellipse fill="none" stroke="#000000" cx="105.4948" cy="-95.4983" rx="19.4965" ry="19.4965"/>
<text text-anchor="middle" x="105.4948" y="-91.7983" font-family="Times,serif" font-size="14.00" fill="#000000">q2</text>
</g>
<!-- q0&#45;&gt;q2 -->
<g id="edge2" class="edge">
<title>q0&#45;&gt;q2</title>
<path fill="none" stroke="#000000" d="M39.0122,-95.4983C49.8208,-95.4983 63.4853,-95.4983 75.611,-95.4983"/>
<polygon fill="#000000" stroke="#000000" points="75.7604,-98.9984 85.7604,-95.4983 75.7604,-91.9984 75.7604,-98.9984"/>
<text text-anchor="middle" x="62.4965" y="-99.2983" font-family="Times,serif" font-size="14.00" fill="#000000">b </text>
</g>
<!-- q3 -->
<g id="node4" class="node">
<title>q3</title>
<ellipse fill="none" stroke="#000000" cx="105.4948" cy="-38.4983" rx="19.4965" ry="19.4965"/>
<text text-anchor="middle" x="105.4948" y="-34.7983" font-family="Times,serif" font-size="14.00" fill="#000000">q3</text>
</g>
<!-- q0&#45;&gt;q3 -->
<g id="edge3" class="edge">
<title>q0&#45;&gt;q3</title>
<path fill="none" stroke="#000000" d="M36.0793,-84.5081C48.69,-76.1495 66.2504,-64.5102 80.5534,-55.0299"/>
<polygon fill="#000000" stroke="#000000" points="82.5631,-57.8969 88.9647,-49.4547 78.6957,-52.0622 82.5631,-57.8969"/>
<text text-anchor="middle" x="62.4965" y="-74.2983" font-family="Times,serif" font-size="14.00" fill="#000000">c </text>
</g>
<!-- q4 -->
<g id="node5" class="node">
<title>q4</title>
<ellipse fill="none" stroke="#000000" cx="191.4913" cy="-152.4983" rx="19.4965" ry="19.4965"/>
<text text-anchor="middle" x="191.4913" y="-148.7983" font-family="Times,serif" font-size="14.00" fill="#000000">q4</text>
</g>
<!-- q1&#45;&gt;q4 -->
<g id="edge4" class="edge">
<title>q1&#45;&gt;q4</title>
<path fill="none" stroke="#000000" d="M125.0088,-152.4983C135.8173,-152.4983 149.4818,-152.4983 161.6076,-152.4983"/>
<polygon fill="#000000" stroke="#000000" points="161.757,-155.9984 171.7569,-152.4983 161.7569,-148.9984 161.757,-155.9984"/>
<text text-anchor="middle" x="148.4931" y="-156.2983" font-family="Times,serif" font-size="14.00" fill="#000000">o </text>
</g>
<!-- q5 -->
<g id="node6" class="node">
<title>q5</title>
<ellipse fill="none" stroke="#000000" cx="191.4913" cy="-76.4983" rx="19.4965" ry="19.4965"/>
<text text-anchor="middle" x="191.4913" y="-72.7983" font-family="Times,serif" font-size="14.00" fill="#000000">q5</text>
</g>
<!-- q2&#45;&gt;q5 -->
<g id="edge5" class="edge">
<title>q2&#45;&gt;q5</title>
<path fill="none" stroke="#000000" d="M124.5802,-91.2816C135.6366,-88.8388 149.7859,-85.7126 162.223,-82.9648"/>
<polygon fill="#000000" stroke="#000000" points="163.1525,-86.3439 172.1619,-80.7689 161.6423,-79.5088 163.1525,-86.3439"/>
<text text-anchor="middle" x="148.4931" y="-91.2983" font-family="Times,serif" font-size="14.00" fill="#000000">a </text>
</g>
<!-- q3&#45;&gt;q5 -->
<g id="edge6" class="edge">
<title>q3&#45;&gt;q5</title>
<path fill="none" stroke="#000000" d="M123.7325,-46.5571C135.5553,-51.7814 151.1669,-58.6798 164.4248,-64.5382"/>
<polygon fill="#000000" stroke="#000000" points="163.0134,-67.7409 173.5749,-68.5814 165.8427,-61.3381 163.0134,-67.7409"/>
<text text-anchor="middle" x="148.4931" y="-64.2983" font-family="Times,serif" font-size="14.00" fill="#000000">a </text>
</g>
<!-- q6 -->
<g id="node7" class="node">
<title>q6</title>
<ellipse fill="none" stroke="#000000" cx="191.4913" cy="-19.4983" rx="19.4965" ry="19.4965"/>
<text text-anchor="middle" x="191.4913" y="-15.7983" font-family="Times,serif" font-size="14.00" fill="#000000">q6</text>
</g>
<!-- q3&#45;&gt;q6 -->
<g id="edge7" class="edge">
<title>q3&#45;&gt;q6</title>
<path fill="none" stroke="#000000" d="M122.4726,-28.4582C128.7103,-25.2862 135.9687,-22.1732 142.9931,-20.4983 148.9758,-19.0717 155.492,-18.3777 161.7504,-18.1144"/>
<polygon fill="#000000" stroke="#000000" points="161.9312,-21.613 171.8998,-18.0245 161.8692,-14.6133 161.9312,-21.613"/>
<text text-anchor="middle" x="148.4931" y="-24.2983" font-family="Times,serif" font-size="14.00" fill="#000000">o </text>
</g>
<!-- q7 -->
<g id="node8" class="node">
<title>q7</title>
<ellipse fill="none" stroke="#000000" cx="280.4879" cy="-152.4983" rx="19.4965" ry="19.4965"/>
<text text-anchor="middle" x="280.4879" y="-148.7983" font-family="Times,serif" font-size="14.00" fill="#000000">q7</text>
</g>
<!-- q4&#45;&gt;q7 -->
<g id="edge8" class="edge">
<title>q4&#45;&gt;q7</title>
<path fill="none" stroke="#000000" d="M211.2426,-152.4983C222.7646,-152.4983 237.5325,-152.4983 250.4682,-152.4983"/>
<polygon fill="#000000" stroke="#000000" points="250.7919,-155.9984 260.7919,-152.4983 250.7919,-148.9984 250.7919,-155.9984"/>
<text text-anchor="middle" x="235.9896" y="-156.2983" font-family="Times,serif" font-size="14.00" fill="#000000">x </text>
</g>
<!-- q8 -->
<g id="node9" class="node">
<title>q8</title>
<ellipse fill="none" stroke="#000000" cx="280.4879" cy="-51.4983" rx="19.4965" ry="19.4965"/>
<text text-anchor="middle" x="280.4879" y="-47.7983" font-family="Times,serif" font-size="14.00" fill="#000000">q8</text>
</g>
<!-- q5&#45;&gt;q8 -->
<g id="edge9" class="edge">
<title>q5&#45;&gt;q8</title>
<path fill="none" stroke="#000000" d="M210.3652,-71.1964C222.4004,-67.8156 238.2293,-63.3691 251.802,-59.5564"/>
<polygon fill="#000000" stroke="#000000" points="252.9604,-62.8666 261.6412,-56.7925 251.0673,-56.1274 252.9604,-62.8666"/>
<text text-anchor="middle" x="235.9896" y="-69.2983" font-family="Times,serif" font-size="14.00" fill="#000000">t </text>
</g>
<!-- q6&#45;&gt;q8 -->
<g id="edge10" class="edge">
<title>q6&#45;&gt;q8</title>
<path fill="none" stroke="#000000" d="M209.9315,-26.1287C222.2223,-30.548 238.6083,-36.4398 252.4954,-41.4331"/>
<polygon fill="#000000" stroke="#000000" points="251.4769,-44.7863 262.0714,-44.8763 253.8455,-38.1991 251.4769,-44.7863"/>
<text text-anchor="middle" x="235.9896" y="-41.2983" font-family="Times,serif" font-size="14.00" fill="#000000">w </text>
</g>
<!-- q9 -->
<g id="node10" class="node">
<title>q9</title>
<ellipse fill="none" stroke="#000000" cx="572.4844" cy="-108.4983" rx="19.4968" ry="19.4968"/>
<ellipse fill="none" stroke="#000000" cx="572.4844" cy="-108.4983" rx="23.4965" ry="23.4965"/>
<text text-anchor="middle" x="572.4844" y="-104.7983" font-family="Times,serif" font-size="14.00" fill="#000000">q9</text>
</g>
<!-- q7&#45;&gt;q9 -->
<g id="edge11" class="edge">
<title>q7&#45;&gt;q9</title>
<path fill="none" stroke="#000000" d="M300.33,-153.7543C306.028,-154.0613 312.2512,-154.3454 317.9862,-154.4983 392.8495,-156.4933 412.6475,-156.6618 485.9862,-141.4983 506.4979,-137.2573 511.4241,-134.9844 530.9862,-127.4983 534.5245,-126.1442 538.1887,-124.6332 541.8083,-123.071"/>
<polygon fill="#000000" stroke="#000000" points="543.4658,-126.164 551.1684,-118.8893 540.6104,-119.7728 543.4658,-126.164"/>
<text text-anchor="middle" x="433.9862" y="-158.2983" font-family="Times,serif" font-size="14.00" fill="#000000">&lt;SG&gt;:00 </text>
</g>
<!-- q10 -->
<g id="node11" class="node">
<title>q10</title>
<ellipse fill="none" stroke="#000000" cx="433.9862" cy="-108.4983" rx="24.0958" ry="24.0958"/>
<text text-anchor="middle" x="433.9862" y="-104.7983" font-family="Times,serif" font-size="14.00" fill="#000000">q10</text>
</g>
<!-- q7&#45;&gt;q10 -->
<g id="edge12" class="edge">
<title>q7&#45;&gt;q10</title>
<path fill="none" stroke="#000000" d="M299.0924,-145.7496C305.0931,-143.6533 311.7937,-141.3964 317.9862,-139.4983 345.5905,-131.037 377.2801,-122.6572 400.5543,-116.7474"/>
<polygon fill="#000000" stroke="#000000" points="401.4515,-120.1309 410.2934,-114.2938 399.7413,-113.343 401.4515,-120.1309"/>
<text text-anchor="middle" x="340.9862" y="-143.2983" font-family="Times,serif" font-size="14.00" fill="#000000">&lt;PL&gt;:e </text>
</g>
<!-- q8&#45;&gt;q9 -->
<g id="edge13" class="edge">
<title>q8&#45;&gt;q9</title>
<path fill="none" stroke="#000000" d="M299.9353,-49.4368C336.9705,-46.1424 419.8291,-41.8184 485.9862,-60.4983 507.044,-66.4441 528.5661,-78.3606 544.8746,-88.8321"/>
<polygon fill="#000000" stroke="#000000" points="543.0926,-91.8499 553.3624,-94.4538 546.958,-86.0139 543.0926,-91.8499"/>
<text text-anchor="middle" x="433.9862" y="-64.2983" font-family="Times,serif" font-size="14.00" fill="#000000">&lt;PL&gt;:s, &lt;SG&gt;:00 </text>
</g>
<!-- q10&#45;&gt;q9 -->
<g id="edge14" class="edge">
<title>q10&#45;&gt;q9</title>
<path fill="none" stroke="#000000" d="M458.1107,-108.4983C480.3536,-108.4983 513.5978,-108.4983 538.5208,-108.4983"/>
<polygon fill="#000000" stroke="#000000" points="538.6364,-111.9984 548.6363,-108.4983 538.6363,-104.9984 538.6364,-111.9984"/>
<text text-anchor="middle" x="517.4862" y="-112.2983" font-family="Times,serif" font-size="14.00" fill="#000000">00:s </text>
</g>
</g>
</svg>
