<?xml version="1.0" encoding="UTF-8" standalone="no"?>
<!DOCTYPE svg PUBLIC "-//W3C//DTD SVG 1.1//EN"
 "http://www.w3.org/Graphics/SVG/1.1/DTD/svg11.dtd">
<!-- Generated by graphviz version 2.40.1 (20161225.0304)
 -->
<!-- Title: H Pages: 1 -->
<svg width="469pt" height="170pt"
 viewBox="0.00 0.00 468.98 170.00" xmlns="http://www.w3.org/2000/svg" xmlns:xlink="http://www.w3.org/1999/xlink">
<g id="graph0" class="graph" transform="scale(1 1) rotate(0) translate(4 165.9965)">
<title>H</title>
<polygon fill="#ffffff" stroke="transparent" points="-4,4 -4,-165.9965 464.9827,-165.9965 464.9827,4 -4,4"/>
<!-- q0 -->
<g id="node1" class="node">
<title>q0</title>
<ellipse fill="none" stroke="#000000" cx="19.4983" cy="-85.4983" rx="19.4965" ry="19.4965"/>
<text text-anchor="middle" x="19.4983" y="-81.7983" font-family="Times,serif" font-size="14.00" fill="#000000">q0</text>
</g>
<!-- q1 -->
<g id="node2" class="node">
<title>q1</title>
<ellipse fill="none" stroke="#000000" cx="105.4948" cy="-142.4983" rx="19.4965" ry="19.4965"/>
<text text-anchor="middle" x="105.4948" y="-138.7983" font-family="Times,serif" font-size="14.00" fill="#000000">q1</text>
</g>
<!-- q0&#45;&gt;q1 -->
<g id="edge1" class="edge">
<title>q0&#45;&gt;q1</title>
<path fill="none" stroke="#000000" d="M36.0793,-96.4884C48.69,-104.847 66.2504,-116.4864 80.5534,-125.9667"/>
<polygon fill="#000000" stroke="#000000" points="78.6957,-128.9344 88.9647,-131.5418 82.5631,-123.0997 78.6957,-128.9344"/>
<text text-anchor="middle" x="62.4965" y="-120.2983" font-family="Times,serif" font-size="14.00" fill="#000000">f </text>
</g>
<!-- q2 -->
<g id="node3" class="node">
<title>q2</title>
<ellipse fill="none" stroke="#000000" cx="105.4948" cy="-85.4983" rx="19.4965" ry="19.4965"/>
<text text-anchor="middle" x="105.4948" y="-81.7983" font-family="Times,serif" font-size="14.00" fill="#000000">q2</text>
</g>
<!-- q0&#45;&gt;q2 -->
<g id="edge2" class="edge">
<title>q0&#45;&gt;q2</title>
<path fill="none" stroke="#000000" d="M39.0122,-85.4983C49.8208,-85.4983 63.4853,-85.4983 75.611,-85.4983"/>
<polygon fill="#000000" stroke="#000000" points="75.7604,-88.9984 85.7604,-85.4983 75.7604,-81.9984 75.7604,-88.9984"/>
<text text-anchor="middle" x="62.4965" y="-89.2983" font-family="Times,serif" font-size="14.00" fill="#000000">b </text>
</g>
<!-- q3 -->
<g id="node4" class="node">
<title>q3</title>
<ellipse fill="none" stroke="#000000" cx="105.4948" cy="-28.4983" rx="19.4965" ry="19.4965"/>
<text text-anchor="middle" x="105.4948" y="-24.7983" font-family="Times,serif" font-size="14.00" fill="#000000">q3</text>
</g>
<!-- q0&#45;&gt;q3 -->
<g id="edge3" class="edge">
<title>q0&#45;&gt;q3</title>
<path fill="none" stroke="#000000" d="M36.0793,-74.5081C48.69,-66.1495 66.2504,-54.5102 80.5534,-45.0299"/>
<polygon fill="#000000" stroke="#000000" points="82.5631,-47.8969 88.9647,-39.4547 78.6957,-42.0622 82.5631,-47.8969"/>
<text text-anchor="middle" x="62.4965" y="-64.2983" font-family="Times,serif" font-size="14.00" fill="#000000">c </text>
</g>
<!-- q4 -->
<g id="node5" class="node">
<title>q4</title>
<ellipse fill="none" stroke="#000000" cx="191.4913" cy="-140.4983" rx="19.4965" ry="19.4965"/>
<text text-anchor="middle" x="191.4913" y="-136.7983" font-family="Times,serif" font-size="14.00" fill="#000000">q4</text>
</g>
<!-- q1&#45;&gt;q4 -->
<g id="edge4" class="edge">
<title>q1&#45;&gt;q4</title>
<path fill="none" stroke="#000000" d="M125.0088,-142.0444C135.8173,-141.7931 149.4818,-141.4753 161.6076,-141.1933"/>
<polygon fill="#000000" stroke="#000000" points="161.8411,-144.6889 171.7569,-140.9572 161.6782,-137.6908 161.8411,-144.6889"/>
<text text-anchor="middle" x="148.4931" y="-145.2983" font-family="Times,serif" font-size="14.00" fill="#000000">o </text>
</g>
<!-- q5 -->
<g id="node6" class="node">
<title>q5</title>
<ellipse fill="none" stroke="#000000" cx="191.4913" cy="-81.4983" rx="19.4965" ry="19.4965"/>
<text text-anchor="middle" x="191.4913" y="-77.7983" font-family="Times,serif" font-size="14.00" fill="#000000">q5</text>
</g>
<!-- q2&#45;&gt;q5 -->
<g id="edge5" class="edge">
<title>q2&#45;&gt;q5</title>
<path fill="none" stroke="#000000" d="M125.0088,-84.5906C135.8173,-84.0879 149.4818,-83.4523 161.6076,-82.8883"/>
<polygon fill="#000000" stroke="#000000" points="161.9304,-86.3771 171.7569,-82.4162 161.6051,-79.3847 161.9304,-86.3771"/>
<text text-anchor="middle" x="148.4931" y="-87.2983" font-family="Times,serif" font-size="14.00" fill="#000000">a </text>
</g>
<!-- q3&#45;&gt;q5 -->
<g id="edge6" class="edge">
<title>q3&#45;&gt;q5</title>
<path fill="none" stroke="#000000" d="M122.485,-38.9694C134.9326,-46.6409 152.0382,-57.1832 166.1042,-65.8521"/>
<polygon fill="#000000" stroke="#000000" points="164.4797,-68.9622 174.8291,-71.2293 168.1524,-63.003 164.4797,-68.9622"/>
<text text-anchor="middle" x="148.4931" y="-62.2983" font-family="Times,serif" font-size="14.00" fill="#000000">a </text>
</g>
<!-- q6 -->
<g id="node7" class="node">
<title>q6</title>
<ellipse fill="none" stroke="#000000" cx="191.4913" cy="-19.4983" rx="19.4965" ry="19.4965"/>
<text text-anchor="middle" x="191.4913" y="-15.7983" font-family="Times,serif" font-size="14.00" fill="#000000">q6</text>
</g>
<!-- q3&#45;&gt;q6 -->
<g id="edge7" class="edge">
<title>q3&#45;&gt;q6</title>
<path fill="none" stroke="#000000" d="M122.5147,-18.9356C128.7563,-15.9323 136.0065,-13.008 142.9931,-11.4983 149.4522,-10.1025 156.4413,-10.2831 163.0487,-11.2142"/>
<polygon fill="#000000" stroke="#000000" points="162.4981,-14.673 172.9866,-13.1763 163.854,-7.8056 162.4981,-14.673"/>
<text text-anchor="middle" x="148.4931" y="-15.2983" font-family="Times,serif" font-size="14.00" fill="#000000">o </text>
</g>
<!-- q7 -->
<g id="node8" class="node">
<title>q7</title>
<ellipse fill="none" stroke="#000000" cx="280.4879" cy="-81.4983" rx="19.4965" ry="19.4965"/>
<text text-anchor="middle" x="280.4879" y="-77.7983" font-family="Times,serif" font-size="14.00" fill="#000000">q7</text>
</g>
<!-- q4&#45;&gt;q7 -->
<g id="edge8" class="edge">
<title>q4&#45;&gt;q7</title>
<path fill="none" stroke="#000000" d="M207.8147,-129.6768C221.1541,-120.8334 240.2321,-108.1857 255.4939,-98.0679"/>
<polygon fill="#000000" stroke="#000000" points="257.5658,-100.8937 263.9666,-92.451 253.6979,-95.0594 257.5658,-100.8937"/>
<text text-anchor="middle" x="235.9896" y="-118.2983" font-family="Times,serif" font-size="14.00" fill="#000000">x </text>
</g>
<!-- q5&#45;&gt;q7 -->
<g id="edge9" class="edge">
<title>q5&#45;&gt;q7</title>
<path fill="none" stroke="#000000" d="M211.2426,-81.4983C222.7646,-81.4983 237.5325,-81.4983 250.4682,-81.4983"/>
<polygon fill="#000000" stroke="#000000" points="250.7919,-84.9984 260.7919,-81.4983 250.7919,-77.9984 250.7919,-84.9984"/>
<text text-anchor="middle" x="235.9896" y="-85.2983" font-family="Times,serif" font-size="14.00" fill="#000000">t </text>
</g>
<!-- q6&#45;&gt;q7 -->
<g id="edge10" class="edge">
<title>q6&#45;&gt;q7</title>
<path fill="none" stroke="#000000" d="M207.8147,-30.87C221.238,-40.2215 240.4723,-53.6212 255.7814,-64.2864"/>
<polygon fill="#000000" stroke="#000000" points="254.0621,-67.3542 264.268,-70.1986 258.0635,-61.6105 254.0621,-67.3542"/>
<text text-anchor="middle" x="235.9896" y="-58.2983" font-family="Times,serif" font-size="14.00" fill="#000000">w </text>
</g>
<!-- q8 -->
<g id="node9" class="node">
<title>q8</title>
<ellipse fill="none" stroke="#000000" cx="437.4844" cy="-81.4983" rx="19.4968" ry="19.4968"/>
<ellipse fill="none" stroke="#000000" cx="437.4844" cy="-81.4983" rx="23.4965" ry="23.4965"/>
<text text-anchor="middle" x="437.4844" y="-77.7983" font-family="Times,serif" font-size="14.00" fill="#000000">q8</text>
</g>
<!-- q7&#45;&gt;q8 -->
<g id="edge11" class="edge">
<title>q7&#45;&gt;q8</title>
<path fill="none" stroke="#000000" d="M300.0542,-81.4983C325.9756,-81.4983 372.1013,-81.4983 403.7093,-81.4983"/>
<polygon fill="#000000" stroke="#000000" points="403.8218,-84.9984 413.8218,-81.4983 403.8217,-77.9984 403.8218,-84.9984"/>
<text text-anchor="middle" x="356.9862" y="-85.2983" font-family="Times,serif" font-size="14.00" fill="#000000">&lt;PL&gt;, &lt;SG&gt; </text>
</g>
</g>
</svg>
